<?xml version="1.0" encoding="utf-8"?>
<!-- Generator: Adobe Illustrator 22.0.1, SVG Export Plug-In . SVG Version: 6.00 Build 0)  -->
<svg version="1.1" id="Режим_изоляции"
	 xmlns="http://www.w3.org/2000/svg" xmlns:xlink="http://www.w3.org/1999/xlink" x="0px" y="0px" viewBox="0 0 130 130"
	 style="enable-background:new 0 0 130 130;" xml:space="preserve">
<style type="text/css">
	.st0{fill-rule:evenodd;clip-rule:evenodd;fill:#FFFFFF;}
</style>
<path class="st0" d="M126.4,64.5c0,10.1,0,20.1,0,30.2c0,5.1-0.9,9.9-3.2,14.4c-4.7,9.1-12.1,14.7-22.2,16.5
	c-2.1,0.4-4.2,0.5-6.4,0.5c-19.9,0-39.8,0-59.7,0c-7,0-13.3-1.9-18.9-6.1c-8-6.1-12.3-14.3-12.3-24.3c-0.1-20.7,0-41.4,0-62
	c0-14.3,10-26.9,24-29.9C29.8,3.2,31.9,3,34,3c20.7-0.1,41.3,0,62,0c14.7,0,27.6,11,29.9,25.6c0.3,1.9,0.4,3.8,0.4,5.6
	C126.4,44.3,126.4,54.4,126.4,64.5z M15,55.5c0,0.4,0,0.7,0,1c0,12.7,0,25.5,0,38.2c0,0.9,0.1,1.8,0.2,2.7c1,9.7,9.3,17.3,19.1,17.3
	c20.4,0,40.9,0,61.3,0c0.9,0,1.8-0.1,2.7-0.2c9.7-1.4,16.7-9.4,16.7-19.3c0-12.9,0-25.8,0-38.8c0-0.3,0-0.6,0-1
	c-7.7,0-15.2,0-22.9,0c2.9,6.6,3.5,13.3,1.6,20.1C91.7,82.5,87.8,88,81.9,92c-9.8,6.7-23,6.7-32.7-0.1c-5.1-3.5-8.7-8.1-10.9-13.9
	c-2.8-7.5-2.4-15,0.9-22.4C31.1,55.5,23.1,55.5,15,55.5z M15,44c0.3,0,0.5,0.1,0.7,0.1c10.8,0,21.7,0,32.5,0c0.4,0,0.8-0.2,1.2-0.4
	c9.8-6.6,22.5-6.6,32.4-0.1c0.4,0.3,1.1,0.5,1.6,0.5c10.2,0,20.3,0,30.5,0c0.3,0,0.7,0,1,0c0-0.3,0.1-0.5,0.1-0.8
	c0-3.3,0.1-6.7,0-10c-0.3-7.5-3.8-13.2-10.4-16.8c-3-1.7-6.4-2.2-9.8-2.2c-16.6,0-33.1,0-49.7,0c-3.8,0-7.6,0-11.4,0.1
	c-8.9,0.2-16.3,6.3-18.3,15C14.4,34.1,15.2,39.1,15,44z M77.7,67.8c0-6.6-5.4-12.1-12.1-12.1c-6.6,0-12.1,5.4-12.1,12
	c-0.1,6.6,5.4,12.1,12.1,12.2C72.3,80,77.7,74.5,77.7,67.8z"/>
<path class="st0" d="M97.4,21.1c1.6,0,3.3,0,4.9,0c2.3,0,3.7,1.4,3.8,3.7c0,3.3,0,6.7,0,10c0,2.3-1.4,3.7-3.8,3.7
	c-3.3,0-6.5,0-9.8,0c-2.4,0-3.8-1.4-3.8-3.7c0-3.3,0-6.6,0-9.9c0-2.4,1.5-3.7,3.8-3.7C94.2,21.1,95.8,21.1,97.4,21.1z"/>
</svg>
