<?xml version="1.0" encoding="utf-8"?>
<!-- Generator: Adobe Illustrator 22.0.1, SVG Export Plug-In . SVG Version: 6.00 Build 0)  -->
<svg version="1.1" id="Layer_2" xmlns="http://www.w3.org/2000/svg" xmlns:xlink="http://www.w3.org/1999/xlink" x="0px" y="0px"
	 viewBox="0 0 130 130" style="enable-background:new 0 0 130 130;" xml:space="preserve">
<style type="text/css">
	.st0{fill:#FFFFFF;}
</style>
<path class="st0" d="M129.5,12.4c-2.2,1.1-8.7,3.4-14.8,4c3.9-2,9.7-8.5,11.1-13.7c-3.8,2.3-12.4,5.6-16.7,5.6v0
	c-4.9-4.8-11.7-7.8-19.3-7.8c-14.8,0-26.7,11.3-26.7,25.2c0,1.9,0.2,3.8,0.7,5.6h0c-20-0.5-41.9-9.9-55.1-26.1
	c-8.1,13.2-1.1,27.9,8.1,33.3c-3.1,0.2-8.9-0.3-11.7-2.8C5,44.4,9.5,56,25.8,60.2c-3.1,1.6-8.7,1.1-11.1,0.8
	c0.9,7.4,11.9,17.1,23.9,17.1C34.2,82.8,18.1,91.2,0,88.5c12.3,7,26.6,11.1,41.8,11.1c43.1,0,76.6-32.9,74.8-73.5c0,0,0-0.1,0-0.1
	c0-0.1,0-0.2,0-0.3c0-0.1,0-0.2,0-0.4C120.5,22.8,125.8,18.3,129.5,12.4z"/>
</svg>
