<?xml version="1.0" encoding="utf-8"?>
<!-- Generator: Adobe Illustrator 22.0.1, SVG Export Plug-In . SVG Version: 6.00 Build 0)  -->
<svg version="1.1" id="LOGO_IGOT.PRO" xmlns="http://www.w3.org/2000/svg" xmlns:xlink="http://www.w3.org/1999/xlink" x="0px"
	 y="0px" viewBox="0 0 471.5 429.2" style="enable-background:new 0 0 471.5 429.2;" xml:space="preserve">
<style type="text/css">
	.st0{fill:#333333;}
	.st1{fill:#FFFFFF;}
	.st2{fill:#0077A6;}
	.st3{fill:#D93B20;}
	.st4{fill:#9E1F62;}
	.st5{fill:#FCAF17;}
	.st6{fill:#F37021;}
</style>
<g>
	<g id="Print">
		<path class="st0" d="M18.6,313.3c2.1,2.1,3.1,4.6,3.1,7.5c0,2.9-1,5.4-3.1,7.5c-2.1,2.1-4.6,3.1-7.5,3.1c-2.9,0-5.4-1-7.5-3.1
			c-2.1-2.1-3.1-4.6-3.1-7.5c0-2.9,1-5.4,3.1-7.5c2.1-2.1,4.6-3.1,7.5-3.1C14,310.1,16.5,311.2,18.6,313.3z"/>
		<path class="st0" d="M279.6,386.4c2.1,2.1,3.1,4.6,3.1,7.5c0,2.9-1,5.4-3.1,7.5c-2.1,2.1-4.6,3.1-7.5,3.1c-2.9,0-5.4-1-7.5-3.1
			c-2.1-2.1-3.1-4.6-3.1-7.5c0-2.9,1-5.4,3.1-7.5c2.1-2.1,4.6-3.1,7.5-3.1C275,383.2,277.5,384.3,279.6,386.4z"/>
		<path class="st0" d="M19.8,345.8c0-5.7-2.9-8.6-8.7-8.6c-2.5,0-4.6,0.8-6.2,2.4c-1.6,1.6-2.4,3.6-2.4,6.2v47.9
			c0,2.6,0.8,4.6,2.4,6.2c1.6,1.6,3.6,2.4,6.2,2.4s4.6-0.8,6.2-2.4c1.6-1.6,2.4-3.6,2.4-6.2V345.8z"/>
		<path class="st0" d="M85.3,348.2h27.3c2.3,0,4.3,0.9,6,2.6c1.7,1.7,2.5,3.8,2.5,6.1c0,12.7-4.4,23.5-13.2,32.4
			c-8.8,8.8-19.6,13.2-32.4,13.2s-23.5-4.4-32.4-13.3c-8.8-8.8-13.2-19.6-13.2-32.4c0-12.8,4.4-23.6,13.2-32.4
			c8.8-8.8,19.6-13.3,32.4-13.3c13.5,0,24.8,5.1,34,15.4c1.6,1.8,2.4,3.7,2.4,5.6c0,2.4-0.9,4.5-2.7,6.2c-1.8,1.7-3.9,2.6-6.2,2.6
			c-2.3,0-4.4-1-6.2-3.1c-5.6-6.3-12.7-9.5-21.3-9.5c-8.1,0-14.8,2.7-20.3,8.2c-5.4,5.4-8.2,12.2-8.2,20.3c0,8,2.7,14.7,8.2,20.2
			c5.5,5.5,12.2,8.2,20.2,8.2c6.3,0,11.9-1.8,16.9-5.5c5-3.7,8.4-8.4,10.3-14.4H85.3c-2.5,0-4.6-0.8-6.2-2.4
			c-1.6-1.6-2.4-3.7-2.4-6.2c0-2.5,0.8-4.6,2.4-6.2C80.7,349,82.8,348.2,85.3,348.2z"/>
		<path class="st0" d="M160,337.3c9.2,0,16.9,3.1,23.2,9.4c6.3,6.3,9.4,14,9.4,23.2s-3.1,16.9-9.4,23.2c-6.3,6.3-14,9.4-23.2,9.4
			c-9.2,0-16.9-3.1-23.1-9.4c-6.2-6.3-9.4-14-9.4-23.2s3.1-16.9,9.4-23.2C143.1,340.4,150.8,337.3,160,337.3z M160,354.5
			c-4.2,0-7.9,1.5-10.8,4.5c-3,3-4.5,6.6-4.5,10.9s1.5,7.9,4.5,10.9c3,3,6.6,4.5,10.8,4.5c4.2,0,7.9-1.5,10.9-4.5
			c3-3,4.5-6.7,4.5-10.9s-1.5-7.9-4.5-10.9C167.8,356,164.2,354.5,160,354.5z"/>
		<path class="st0" d="M254.5,374.7c0,7.7-2.6,14.2-7.9,19.6c-5.3,5.3-11.8,8-19.5,8c-7.8,0-14.4-2.6-19.6-7.9
			c-5.3-5.3-7.9-11.8-7.9-19.6v-43.8c0-2.5,0.8-4.6,2.4-6.2c1.6-1.6,3.6-2.4,6.2-2.4c2.5,0,4.6,0.8,6.2,2.4c1.6,1.6,2.4,3.7,2.4,6.2
			v6.8H246c2.5,0,4.6,0.8,6.2,2.4c1.6,1.6,2.4,3.6,2.4,6.2c0,5.8-2.8,8.7-8.5,8.7h-29.2v19.9c0,2.9,1,5.3,3,7.3c2,2,4.4,3,7.3,3
			c2.9,0,5.3-1,7.3-3c2-2,2.9-4.4,2.9-7.3v-1.1c0-2.5,0.8-4.5,2.5-6.1c1.7-1.6,3.7-2.4,6.2-2.4c2.5,0,4.5,0.8,6.1,2.4
			c1.6,1.6,2.4,3.7,2.4,6.1V374.7z"/>
		<path class="st1" d="M326.7,385.3c4.2,0,7.9-1.5,10.9-4.5c3-3,4.5-6.7,4.5-10.9s-1.5-7.9-4.5-10.9c-3-3-6.6-4.5-10.9-4.5
			c-4.2,0-7.9,1.5-10.8,4.5c-3,3-4.5,6.6-4.5,10.8v49.9c0,2.6-0.8,4.6-2.4,6.3c-1.6,1.6-3.7,2.4-6.2,2.4c-2.5,0-4.6-0.8-6.2-2.4
			c-1.6-1.6-2.4-3.7-2.4-6.3v-49.9c0-9.2,3.1-16.9,9.4-23.2c6.2-6.3,13.9-9.4,23.1-9.4c9.2,0,16.9,3.1,23.2,9.4
			c6.3,6.3,9.4,14,9.4,23.2s-3.1,16.9-9.4,23.2c-6.3,6.3-14,9.4-23.2,9.4c-2.5,0-4.6-0.8-6.2-2.4c-1.6-1.6-2.4-3.7-2.4-6.2
			c0-2.5,0.8-4.6,2.4-6.2C322,386.1,324.1,385.3,326.7,385.3z"/>
		<path class="st1" d="M384.4,364.7v29c0,2.6-0.8,4.6-2.4,6.2c-1.6,1.6-3.7,2.4-6.2,2.4c-2.5,0-4.6-0.8-6.2-2.4
			c-1.6-1.6-2.4-3.6-2.4-6.2v-29c0-7.7,2.7-14.3,8-19.5c5.3-5.3,11.8-7.9,19.6-7.9c2.5,0,4.5,0.8,6.1,2.4c1.6,1.6,2.4,3.7,2.4,6.1
			c0,5.3-2.9,8.2-8.8,8.7c-2.9,0.3-5.3,1.3-7.2,3.1C385.4,359.4,384.4,361.8,384.4,364.7z"/>
		<path class="st1" d="M438.4,337.3c9.2,0,16.9,3.1,23.2,9.4c6.3,6.3,9.4,14,9.4,23.2s-3.1,16.9-9.4,23.2c-6.3,6.3-14,9.4-23.2,9.4
			c-9.2,0-16.9-3.1-23.1-9.4s-9.4-14-9.4-23.2s3.1-16.9,9.4-23.2C421.5,340.4,429.2,337.3,438.4,337.3z M438.4,354.5
			c-4.2,0-7.9,1.5-10.8,4.5c-3,3-4.5,6.6-4.5,10.9s1.5,7.9,4.5,10.9c3,3,6.6,4.5,10.8,4.5c4.2,0,7.9-1.5,10.9-4.5
			c3-3,4.5-6.7,4.5-10.9s-1.5-7.9-4.5-10.9C446.2,356,442.6,354.5,438.4,354.5z"/>
	</g>
	<g id="Znak">
		<polygon class="st2" points="270.2,34.2 136.3,170.1 102.9,136.1 236.8,0.3 		"/>
		<polygon class="st3" points="236.8,272 102.9,136.1 136.3,102.2 270.3,238 		"/>
		<polygon class="st4" points="136.3,170.1 102.9,136.1 136.3,102.2 169.8,136.1 		"/>
		<polygon class="st5" points="236.8,272 236.8,136.1 372.6,136.1 		"/>
		<polygon class="st6" points="236.8,272 270.7,238 236.8,204 		"/>
	</g>
</g>
</svg>
